<?xml version="1.0" encoding="UTF-8"?>
<svg id="Capa_2" data-name="Capa 2" xmlns="http://www.w3.org/2000/svg" viewBox="0 0 221.95 373.51">
  <defs>
    <style>
      .cls-1 {
        fill: #e5b6ea;
      }
    </style>
  </defs>
  <g id="Capa_1-2" data-name="Capa 1">
    <path class="cls-1" d="M221.95,110.98C221.95,49.68,172.27,0,110.98,0S0,49.68,0,110.98c0,51.39,34.95,94.63,82.36,107.25-1.4,3.51-2.18,7.36-2.18,11.38v113.1c0,17.02,13.78,30.81,30.79,30.81s30.81-13.79,30.81-30.81v-113.1c0-4.03-.77-7.87-2.18-11.4,47.41-12.6,82.34-55.84,82.34-107.23Zm-51.23,10.53l-59.75,59.75-54.87-54.87-4.88-4.88c-7.56-7.56-11.36-17.5-11.36-27.42s3.8-19.86,11.36-27.44c15.16-15.14,39.72-15.14,54.87,0l4.88,4.88,4.88-4.88c7.58-7.58,17.5-11.36,27.42-11.36s19.88,3.78,27.44,11.36c15.14,15.16,15.14,39.72,0,54.87Z"/>
  </g>
</svg>