<?xml version="1.0" encoding="UTF-8"?>
<svg id="Capa_2" data-name="Capa 2" xmlns="http://www.w3.org/2000/svg" viewBox="0 0 305.26 246.09">
  <defs>
    <style>
      .cls-1 {
        fill: #e5b6ea;
      }
    </style>
  </defs>
  <g id="Capa_1-2" data-name="Capa 1">
    <path class="cls-1" d="M293.92,0l-50.21,1.56c-5.03,.16-9.31,3.7-10.4,8.61l-8.85,39.83c-1.54-1.94-3.19-3.82-4.98-5.61-12.69-12.72-29.36-19.06-46.03-19.06s-33.28,6.34-46,19.06l-8.18,8.19-8.19-8.19c-25.4-25.4-66.6-25.4-92.03,0C6.37,57.11,0,73.79,0,90.43s6.37,33.31,19.06,46l8.19,8.18,51.79,51.79c-3.2-1.43-6.75-2.25-10.48-2.25-14.2,0-25.71,11.51-25.71,25.71s11.51,25.71,25.71,25.71,25.71-11.51,25.71-25.71c0-3.74-.82-7.28-2.25-10.48l27.27,27.27,26.28-26.28c-1.31,3.08-2.03,6.47-2.03,10.02,0,14.2,11.51,25.71,25.71,25.71s25.71-11.51,25.71-25.71-11.51-25.71-25.71-25.71c-3.56,0-6.94,.72-10.02,2.03l60.28-60.28c13.26-13.26,19.58-30.82,19-48.19,.06-.22,.13-.43,.18-.66l14.28-64.28,41.67-1.3c6.07-.19,10.84-5.26,10.65-11.34-.19-6.07-5.25-10.87-11.34-10.65Z"/>
  </g>
</svg>