<?xml version="1.0" encoding="UTF-8"?>
<svg id="Capa_2" data-name="Capa 2" xmlns="http://www.w3.org/2000/svg" viewBox="0 0 196.96 300.96">
  <defs>
    <style>
      .cls-1 {
        fill: #e5b6ea;
      }
    </style>
  </defs>
  <g id="Capa_1-2" data-name="Capa 1">
    <path class="cls-1" d="M196.96,98.48C196.96,42.85,150.83-2.01,94.73,.07,44.01,1.95,2.52,42.99,.11,93.69c-.8,16.89,2.66,32.89,9.39,47.04h0l.09,.19c.15,.31,.31,.62,.46,.93l74.57,150.51c5.68,11.46,22.02,11.46,27.7,0l74.74-150.84c.13-.26,.26-.51,.38-.77v-.02s.01,0,.01,0c5.23-11,8.49-23.13,9.3-35.92,.13-2.09,.2-4.2,.2-6.33Zm-53.96-2.27l-44.52,44.52-40.89-40.88-3.64-3.64c-5.64-5.64-8.47-13.04-8.47-20.44s2.83-14.8,8.47-20.45c11.3-11.28,29.6-11.28,40.89,0l3.64,3.64,3.64-3.64c5.65-5.65,13.04-8.47,20.44-8.47s14.81,2.82,20.45,8.47c11.28,11.3,11.28,29.6,0,40.89Z"/>
  </g>
</svg>